<svg version="1.1" xmlns="http://www.w3.org/2000/svg" xmlns:xlink="http://www.w3.org/1999/xlink" width="1021" height="440"><defs></defs><g><g transform="translate(-102,-2) scale(1,1)"><rect fill="#C0C0C0" stroke="none" x="411" y="187" width="65" height="24" opacity="0.2"></rect></g><g transform="translate(-102,-2) scale(1,1)"><rect fill="#d8e5ff" stroke="none" x="404" y="180" width="65" height="24"></rect></g><g transform="translate(-102,-2) scale(1,1)"><path fill="none" stroke="#000000" d="M 404 180 L 469 180 L 469 204 L 404 204 L 404 180 Z Z" stroke-miterlimit="10"></path></g><g transform="translate(-102,-2) scale(1,1)"><g><path fill="none" stroke="none"></path><text fill="#000000" stroke="none" font-family="Arial" font-size="13px" font-style="normal" font-weight="bold" text-decoration="none" x="411.5" y="199.5">Tradition</text></g></g><g transform="translate(-102,-2) scale(1,1)"><rect fill="#C0C0C0" stroke="none" x="339" y="187" width="37" height="24" opacity="0.2"></rect></g><g transform="translate(-102,-2) scale(1,1)"><rect fill="#d8e5ff" stroke="none" x="332" y="180" width="37" height="24"></rect></g><g transform="translate(-102,-2) scale(1,1)"><path fill="none" stroke="#000000" d="M 332 180 L 369 180 L 369 204 L 332 204 L 332 180 Z Z" stroke-miterlimit="10"></path></g><g transform="translate(-102,-2) scale(1,1)"><g><path fill="none" stroke="none"></path><text fill="#000000" stroke="none" font-family="Arial" font-size="13px" font-style="normal" font-weight="bold" text-decoration="none" x="337" y="199.5">User</text></g></g><g transform="translate(-102,-2) scale(1,1)"><rect fill="#C0C0C0" stroke="none" x="627" y="187" width="58" height="24" opacity="0.2"></rect></g><g transform="translate(-102,-2) scale(1,1)"><rect fill="#d8e5ff" stroke="none" x="620" y="180" width="58" height="24"></rect></g><g transform="translate(-102,-2) scale(1,1)"><path fill="none" stroke="#000000" d="M 620 180 L 678 180 L 678 204 L 620 204 L 620 180 Z Z" stroke-miterlimit="10"></path></g><g transform="translate(-102,-2) scale(1,1)"><g><path fill="none" stroke="none"></path><text fill="#000000" stroke="none" font-family="Arial" font-size="13px" font-style="normal" font-weight="bold" text-decoration="none" x="625.5" y="199.5">Witness</text></g></g><g transform="translate(-102,-2) scale(1,1)"><rect fill="#C0C0C0" stroke="none" x="911" y="339" width="105" height="24" opacity="0.2"></rect></g><g transform="translate(-102,-2) scale(1,1)"><rect fill="#ebffd8" stroke="none" x="904" y="332" width="105" height="24"></rect></g><g transform="translate(-102,-2) scale(1,1)"><path fill="none" stroke="#000000" d="M 904 332 L 1009 332 L 1009 356 L 904 356 L 904 332 Z Z" stroke-miterlimit="10"></path></g><g transform="translate(-102,-2) scale(1,1)"><g><path fill="none" stroke="none"></path><text fill="#000000" stroke="none" font-family="Arial" font-size="13px" font-style="normal" font-weight="bold" text-decoration="none" x="912" y="351.5">DuplicateModel</text></g></g><g transform="translate(-102,-2) scale(1,1)"><rect fill="#C0C0C0" stroke="none" x="691" y="391" width="85" height="24" opacity="0.2"></rect></g><g transform="translate(-102,-2) scale(1,1)"><rect fill="#ebffd8" stroke="none" x="684" y="384" width="85" height="24"></rect></g><g transform="translate(-102,-2) scale(1,1)"><path fill="none" stroke="#000000" d="M 684 384 L 769 384 L 769 408 L 684 408 L 684 384 Z Z" stroke-miterlimit="10"></path></g><g transform="translate(-102,-2) scale(1,1)"><g><path fill="none" stroke="none"></path><text fill="#000000" stroke="none" font-family="Arial" font-size="13px" font-style="normal" font-weight="bold" text-decoration="none" x="691.5" y="403.5">GraphModel</text></g></g><g transform="translate(-102,-2) scale(1,1)"><rect fill="#C0C0C0" stroke="none" x="911" y="367" width="198" height="24" opacity="0.2"></rect></g><g transform="translate(-102,-2) scale(1,1)"><rect fill="#ebffd8" stroke="none" x="904" y="360" width="198" height="24"></rect></g><g transform="translate(-102,-2) scale(1,1)"><path fill="none" stroke="#000000" d="M 904 360 L 1102 360 L 1102 384 L 904 384 L 904 360 Z Z" stroke-miterlimit="10"></path></g><g transform="translate(-102,-2) scale(1,1)"><g><path fill="none" stroke="none"></path><text fill="#000000" stroke="none" font-family="Arial" font-size="13px" font-style="normal" font-weight="bold" text-decoration="none" x="915.5" y="379.5">ReadingChangePropertyModel</text></g></g><g transform="translate(-102,-2) scale(1,1)"><rect fill="#C0C0C0" stroke="none" x="691" y="331" width="98" height="24" opacity="0.2"></rect></g><g transform="translate(-102,-2) scale(1,1)"><rect fill="#ebffd8" stroke="none" x="684" y="324" width="98" height="24"></rect></g><g transform="translate(-102,-2) scale(1,1)"><path fill="none" stroke="#000000" d="M 684 324 L 782 324 L 782 348 L 684 348 L 684 324 Z Z" stroke-miterlimit="10"></path></g><g transform="translate(-102,-2) scale(1,1)"><g><path fill="none" stroke="none"></path><text fill="#000000" stroke="none" font-family="Arial" font-size="13px" font-style="normal" font-weight="bold" text-decoration="none" x="692" y="343.5">ReadingModel</text></g></g><g transform="translate(-102,-2) scale(1,1)"><rect fill="#C0C0C0" stroke="none" x="511" y="359" width="121" height="24" opacity="0.2"></rect></g><g transform="translate(-102,-2) scale(1,1)"><rect fill="#ebffd8" stroke="none" x="504" y="352" width="121" height="24"></rect></g><g transform="translate(-102,-2) scale(1,1)"><path fill="none" stroke="#000000" d="M 504 352 L 625 352 L 625 376 L 504 376 L 504 352 Z Z" stroke-miterlimit="10"></path></g><g transform="translate(-102,-2) scale(1,1)"><g><path fill="none" stroke="none"></path><text fill="#000000" stroke="none" font-family="Arial" font-size="13px" font-style="normal" font-weight="bold" text-decoration="none" x="513" y="371.5">RelationshpModel</text></g></g><g transform="translate(-102,-2) scale(1,1)"><rect fill="#C0C0C0" stroke="none" x="363" y="387" width="103" height="24" opacity="0.2"></rect></g><g transform="translate(-102,-2) scale(1,1)"><rect fill="#ebffd8" stroke="none" x="356" y="380" width="103" height="24"></rect></g><g transform="translate(-102,-2) scale(1,1)"><path fill="none" stroke="#000000" d="M 356 380 L 459 380 L 459 404 L 356 404 L 356 380 Z Z" stroke-miterlimit="10"></path></g><g transform="translate(-102,-2) scale(1,1)"><g><path fill="none" stroke="none"></path><text fill="#000000" stroke="none" font-family="Arial" font-size="13px" font-style="normal" font-weight="bold" text-decoration="none" x="365" y="399.5">TraditionModel</text></g></g><g transform="translate(-102,-2) scale(1,1)"><rect fill="#C0C0C0" stroke="none" x="363" y="415" width="75" height="24" opacity="0.2"></rect></g><g transform="translate(-102,-2) scale(1,1)"><rect fill="#ebffd8" stroke="none" x="356" y="408" width="75" height="24"></rect></g><g transform="translate(-102,-2) scale(1,1)"><path fill="none" stroke="#000000" d="M 356 408 L 431 408 L 431 432 L 356 432 L 356 408 Z Z" stroke-miterlimit="10"></path></g><g transform="translate(-102,-2) scale(1,1)"><g><path fill="none" stroke="none"></path><text fill="#000000" stroke="none" font-family="Arial" font-size="13px" font-style="normal" font-weight="bold" text-decoration="none" x="362.5" y="427.5">UserModel</text></g></g><g transform="translate(-102,-2) scale(1,1)"><rect fill="#C0C0C0" stroke="none" x="363" y="359" width="96" height="24" opacity="0.2"></rect></g><g transform="translate(-102,-2) scale(1,1)"><rect fill="#ebffd8" stroke="none" x="356" y="352" width="96" height="24"></rect></g><g transform="translate(-102,-2) scale(1,1)"><path fill="none" stroke="#000000" d="M 356 352 L 452 352 L 452 376 L 356 376 L 356 352 Z Z" stroke-miterlimit="10"></path></g><g transform="translate(-102,-2) scale(1,1)"><g><path fill="none" stroke="none"></path><text fill="#000000" stroke="none" font-family="Arial" font-size="13px" font-style="normal" font-weight="bold" text-decoration="none" x="363" y="371.5">WitnessModel</text></g></g><g transform="translate(-102,-2) scale(1,1)"><rect fill="#C0C0C0" stroke="none" x="755" y="83" width="121" height="24" opacity="0.2"></rect></g><g transform="translate(-102,-2) scale(1,1)"><rect fill="#ffd8eb" stroke="none" x="748" y="76" width="121" height="24"></rect></g><g transform="translate(-102,-2) scale(1,1)"><path fill="none" stroke="#000000" d="M 748 76 L 869 76 L 869 100 L 748 100 L 748 76 Z Z" stroke-miterlimit="10"></path></g><g transform="translate(-102,-2) scale(1,1)"><g><path fill="none" stroke="none"></path><text fill="#000000" stroke="none" font-family="Arial" font-size="13px" font-style="normal" font-weight="bold" text-decoration="none" x="758" y="95.5">ApplicationConfig</text></g></g><g transform="translate(-102,-2) scale(1,1)"><rect fill="#C0C0C0" stroke="none" x="847" y="187" width="60" height="24" opacity="0.2"></rect></g><g transform="translate(-102,-2) scale(1,1)"><rect fill="#d8e5ff" stroke="none" x="840" y="180" width="60" height="24"></rect></g><g transform="translate(-102,-2) scale(1,1)"><path fill="none" stroke="#000000" d="M 840 180 L 900 180 L 900 204 L 840 204 L 840 180 Z Z" stroke-miterlimit="10"></path></g><g transform="translate(-102,-2) scale(1,1)"><g><path fill="none" stroke="none"></path><text fill="#000000" stroke="none" font-family="Arial" font-size="13px" font-style="normal" font-weight="bold" text-decoration="none" x="846.5" y="199.5">Reading</text></g></g><g transform="translate(-102,-2) scale(1,1)"><rect fill="#C0C0C0" stroke="none" x="735" y="187" width="60" height="24" opacity="0.2"></rect></g><g transform="translate(-102,-2) scale(1,1)"><rect fill="#d8e5ff" stroke="none" x="728" y="180" width="60" height="24"></rect></g><g transform="translate(-102,-2) scale(1,1)"><path fill="none" stroke="#000000" d="M 728 180 L 788 180 L 788 204 L 728 204 L 728 180 Z Z" stroke-miterlimit="10"></path></g><g transform="translate(-102,-2) scale(1,1)"><g><path fill="none" stroke="none"></path><text fill="#000000" stroke="none" font-family="Arial" font-size="13px" font-style="normal" font-weight="bold" text-decoration="none" x="734.5" y="199.5">Relation</text></g></g><g transform="translate(-102,-2) scale(1,1)"><rect fill="#C0C0C0" stroke="none" x="523" y="187" width="60" height="24" opacity="0.2"></rect></g><g transform="translate(-102,-2) scale(1,1)"><rect fill="#d8e5ff" stroke="none" x="516" y="180" width="60" height="24"></rect></g><g transform="translate(-102,-2) scale(1,1)"><path fill="none" stroke="#000000" d="M 516 180 L 576 180 L 576 204 L 516 204 L 516 180 Z Z" stroke-miterlimit="10"></path></g><g transform="translate(-102,-2) scale(1,1)"><g><path fill="none" stroke="none"></path><text fill="#000000" stroke="none" font-family="Arial" font-size="13px" font-style="normal" font-weight="bold" text-decoration="none" x="521.5" y="199.5">Stemma</text></g></g><g transform="translate(-102,-2) scale(1,1)"><rect fill="#C0C0C0" stroke="none" x="959" y="223" width="111" height="24" opacity="0.2"></rect></g><g transform="translate(-102,-2) scale(1,1)"><rect fill="#fff5d8" stroke="none" x="952" y="216" width="111" height="24"></rect></g><g transform="translate(-102,-2) scale(1,1)"><path fill="none" stroke="#000000" d="M 952 216 L 1063 216 L 1063 240 L 952 240 L 952 216 Z Z" stroke-miterlimit="10"></path></g><g transform="translate(-102,-2) scale(1,1)"><g><path fill="none" stroke="none"></path><text fill="#000000" stroke="none" font-family="Arial" font-size="13px" font-style="normal" font-weight="bold" text-decoration="none" x="958" y="235.5">DatabaseService</text></g></g><g transform="translate(-102,-2) scale(1,1)"><rect fill="#C0C0C0" stroke="none" x="183" y="331" width="124" height="24" opacity="0.2"></rect></g><g transform="translate(-102,-2) scale(1,1)"><rect fill="#ffe2d8" stroke="none" x="176" y="324" width="124" height="24"></rect></g><g transform="translate(-102,-2) scale(1,1)"><path fill="none" stroke="#000000" d="M 176 324 L 300 324 L 300 348 L 176 348 L 176 324 Z Z" stroke-miterlimit="10"></path></g><g transform="translate(-102,-2) scale(1,1)"><g><path fill="none" stroke="none"></path><text fill="#000000" stroke="none" font-family="Arial" font-size="13px" font-style="normal" font-weight="bold" text-decoration="none" x="183" y="343.5">DotToNeo4JParser</text></g></g><g transform="translate(-102,-2) scale(1,1)"><rect fill="#C0C0C0" stroke="none" x="295" y="99" width="202" height="24" opacity="0.2"></rect></g><g transform="translate(-102,-2) scale(1,1)"><rect fill="#ffd8eb" stroke="none" x="288" y="92" width="202" height="24"></rect></g><g transform="translate(-102,-2) scale(1,1)"><path fill="none" stroke="#000000" d="M 288 92 L 490 92 L 490 116 L 288 116 L 288 92 Z Z" stroke-miterlimit="10"></path></g><g transform="translate(-102,-2) scale(1,1)"><g><path fill="none" stroke="none"></path><text fill="#000000" stroke="none" font-family="Arial" font-size="13px" font-style="normal" font-weight="bold" text-decoration="none" x="298" y="111.5">GraphDatabaseServiceProvider</text></g></g><g transform="translate(-102,-2) scale(1,1)"><rect fill="#C0C0C0" stroke="none" x="147" y="247" width="160" height="24" opacity="0.2"></rect></g><g transform="translate(-102,-2) scale(1,1)"><rect fill="#ffe2d8" stroke="none" x="140" y="240" width="160" height="24"></rect></g><g transform="translate(-102,-2) scale(1,1)"><path fill="none" stroke="#000000" d="M 140 240 L 300 240 L 300 264 L 140 264 L 140 240 Z Z" stroke-miterlimit="10"></path></g><g transform="translate(-102,-2) scale(1,1)"><g><path fill="none" stroke="none"></path><text fill="#000000" stroke="none" font-family="Arial" font-size="13px" font-style="normal" font-weight="bold" text-decoration="none" x="148.5" y="259.5">GraphMLToNeo4JParser</text></g></g><g transform="translate(-102,-2) scale(1,1)"><rect fill="#C0C0C0" stroke="none" x="183" y="303" width="124" height="24" opacity="0.2"></rect></g><g transform="translate(-102,-2) scale(1,1)"><rect fill="#ffe2d8" stroke="none" x="176" y="296" width="124" height="24"></rect></g><g transform="translate(-102,-2) scale(1,1)"><path fill="none" stroke="#000000" d="M 176 296 L 300 296 L 300 320 L 176 320 L 176 296 Z Z" stroke-miterlimit="10"></path></g><g transform="translate(-102,-2) scale(1,1)"><g><path fill="none" stroke="none"></path><text fill="#000000" stroke="none" font-family="Arial" font-size="13px" font-style="normal" font-weight="bold" text-decoration="none" x="183" y="315.5">Neo4JToDotParser</text></g></g><g transform="translate(-102,-2) scale(1,1)"><rect fill="#C0C0C0" stroke="none" x="147" y="275" width="160" height="24" opacity="0.2"></rect></g><g transform="translate(-102,-2) scale(1,1)"><rect fill="#ffe2d8" stroke="none" x="140" y="268" width="160" height="24"></rect></g><g transform="translate(-102,-2) scale(1,1)"><path fill="none" stroke="#000000" d="M 140 268 L 300 268 L 300 292 L 140 292 L 140 268 Z Z" stroke-miterlimit="10"></path></g><g transform="translate(-102,-2) scale(1,1)"><g><path fill="none" stroke="none"></path><text fill="#000000" stroke="none" font-family="Arial" font-size="13px" font-style="normal" font-weight="bold" text-decoration="none" x="148.5" y="287.5">Neo4JToGraphMLParser</text></g></g><g transform="translate(-102,-2) scale(1,1)"><rect fill="#C0C0C0" stroke="none" x="959" y="279" width="106" height="24" opacity="0.2"></rect></g><g transform="translate(-102,-2) scale(1,1)"><rect fill="#fff5d8" stroke="none" x="952" y="272" width="106" height="24"></rect></g><g transform="translate(-102,-2) scale(1,1)"><path fill="none" stroke="#000000" d="M 952 272 L 1058 272 L 1058 296 L 952 296 L 952 272 Z Z" stroke-miterlimit="10"></path></g><g transform="translate(-102,-2) scale(1,1)"><g><path fill="none" stroke="none"></path><text fill="#000000" stroke="none" font-family="Arial" font-size="13px" font-style="normal" font-weight="bold" text-decoration="none" x="959.5" y="291.5">ReadingService</text></g></g><g transform="translate(-102,-2) scale(1,1)"><rect fill="#C0C0C0" stroke="none" x="959" y="251" width="133" height="24" opacity="0.2"></rect></g><g transform="translate(-102,-2) scale(1,1)"><rect fill="#fff5d8" stroke="none" x="952" y="244" width="133" height="24"></rect></g><g transform="translate(-102,-2) scale(1,1)"><path fill="none" stroke="#000000" d="M 952 244 L 1085 244 L 1085 268 L 952 268 L 952 244 Z Z" stroke-miterlimit="10"></path></g><g transform="translate(-102,-2) scale(1,1)"><g><path fill="none" stroke="none"></path><text fill="#000000" stroke="none" font-family="Arial" font-size="13px" font-style="normal" font-weight="bold" text-decoration="none" x="961" y="263.5">RelationshipService</text></g></g><g transform="translate(-102,-2) scale(1,1)"><rect fill="#C0C0C0" stroke="none" x="583" y="75" width="74" height="37" opacity="0.2"></rect></g><g transform="translate(-102,-2) scale(1,1)"><rect fill="#ffffff" stroke="none" x="576" y="68" width="74" height="37"></rect></g><g transform="translate(-102,-2) scale(1,1)"><path fill="none" stroke="#000000" d="M 576 68 L 650 68 L 650 105 L 576 105 L 576 68 Z Z" stroke-miterlimit="10"></path></g><g transform="translate(-102,-2) scale(1,1)"><g><path fill="none" stroke="none"></path><text fill="#000000" stroke="none" font-family="Arial" font-size="13px" font-style="normal" font-weight="normal" text-decoration="none" x="580.5" y="85.5">«Interface»</text></g></g><g transform="translate(-102,-2) scale(1,1)"><g><path fill="none" stroke="none"></path><text fill="#000000" stroke="none" font-family="Arial" font-size="13px" font-style="normal" font-weight="bold" text-decoration="none" x="583.5" y="100.5">IResource</text></g></g><g transform="translate(-102,-2) scale(1,1)"><rect fill="#C0C0C0" stroke="none" x="783" y="19" width="80" height="24" opacity="0.2"></rect></g><g transform="translate(-102,-2) scale(1,1)"><rect fill="#e2e2e2" stroke="none" x="776" y="12" width="80" height="24"></rect></g><g transform="translate(-102,-2) scale(1,1)"><path fill="none" stroke="#000000" d="M 776 12 L 856 12 L 856 36 L 776 36 L 776 12 Z Z" stroke-miterlimit="10"></path></g><g transform="translate(-102,-2) scale(1,1)"><g><path fill="none" stroke="none"></path><text fill="#000000" stroke="none" font-family="Arial" font-size="13px" font-style="normal" font-weight="bold" text-decoration="none" x="784" y="31.5">Application</text></g></g><g transform="translate(-102,-2) scale(1,1)"><path fill="none" stroke="#000000" d="M 816 76 L 816 36" stroke-miterlimit="10"></path></g><g transform="translate(-102,-2) scale(1,1)"><path fill="#FFFFFF" stroke="none" d="M 824.419035512032 56.32534971524831 L 816 36 L 807.580964487968 56.32534971524831"></path></g><g transform="translate(-102,-2) scale(1,1)"><path fill="none" stroke="#000000" d="M 824.419035512032 56.32534971524831 L 816 36 L 807.580964487968 56.32534971524831 L 824.419035512032 56.32534971524831" stroke-miterlimit="10"></path></g><g transform="translate(-102,-2) scale(1,1)"><path fill="none" stroke="#000000" d="M 350 180 L 350 148 L 613 148 L 613 105" stroke-miterlimit="10"></path></g><g transform="translate(-102,-2) scale(1,1)"><path fill="#FFFFFF" stroke="none" d="M 621.419035512032 125.32534971524831 L 613 105 L 604.580964487968 125.32534971524831"></path></g><g transform="translate(-102,-2) scale(1,1)"><path fill="none" stroke="#000000" d="M 621.419035512032 125.32534971524831 L 613 105 L 604.580964487968 125.32534971524831 L 621.419035512032 125.32534971524831" stroke-miterlimit="10"></path></g><g transform="translate(-102,-2) scale(1,1)"><path fill="none" stroke="#000000" d="M 436 180 L 436 148 L 613 148 L 613 105" stroke-miterlimit="10"></path></g><g transform="translate(-102,-2) scale(1,1)"><path fill="#FFFFFF" stroke="none" d="M 621.419035512032 125.32534971524831 L 613 105 L 604.580964487968 125.32534971524831"></path></g><g transform="translate(-102,-2) scale(1,1)"><path fill="none" stroke="#000000" d="M 621.419035512032 125.32534971524831 L 613 105 L 604.580964487968 125.32534971524831 L 621.419035512032 125.32534971524831" stroke-miterlimit="10"></path></g><g transform="translate(-102,-2) scale(1,1)"><path fill="none" stroke="#000000" d="M 546 180 L 546 148 L 613 148 L 613 105" stroke-miterlimit="10"></path></g><g transform="translate(-102,-2) scale(1,1)"><path fill="#FFFFFF" stroke="none" d="M 621.419035512032 125.32534971524831 L 613 105 L 604.580964487968 125.32534971524831"></path></g><g transform="translate(-102,-2) scale(1,1)"><path fill="none" stroke="#000000" d="M 621.419035512032 125.32534971524831 L 613 105 L 604.580964487968 125.32534971524831 L 621.419035512032 125.32534971524831" stroke-miterlimit="10"></path></g><g transform="translate(-102,-2) scale(1,1)"><path fill="none" stroke="#000000" d="M 649 180 L 649 148 L 613 148 L 613 105" stroke-miterlimit="10"></path></g><g transform="translate(-102,-2) scale(1,1)"><path fill="#FFFFFF" stroke="none" d="M 621.419035512032 125.32534971524831 L 613 105 L 604.580964487968 125.32534971524831"></path></g><g transform="translate(-102,-2) scale(1,1)"><path fill="none" stroke="#000000" d="M 621.419035512032 125.32534971524831 L 613 105 L 604.580964487968 125.32534971524831 L 621.419035512032 125.32534971524831" stroke-miterlimit="10"></path></g><g transform="translate(-102,-2) scale(1,1)"><path fill="none" stroke="#000000" d="M 758 180 L 758 148 L 613 148 L 613 105" stroke-miterlimit="10"></path></g><g transform="translate(-102,-2) scale(1,1)"><path fill="#FFFFFF" stroke="none" d="M 621.419035512032 125.32534971524831 L 613 105 L 604.580964487968 125.32534971524831"></path></g><g transform="translate(-102,-2) scale(1,1)"><path fill="none" stroke="#000000" d="M 621.419035512032 125.32534971524831 L 613 105 L 604.580964487968 125.32534971524831 L 621.419035512032 125.32534971524831" stroke-miterlimit="10"></path></g><g transform="translate(-102,-2) scale(1,1)"><path fill="none" stroke="#000000" d="M 870 180 L 870 148 L 613 148 L 613 105" stroke-miterlimit="10"></path></g><g transform="translate(-102,-2) scale(1,1)"><path fill="#FFFFFF" stroke="none" d="M 621.419035512032 125.32534971524831 L 613 105 L 604.580964487968 125.32534971524831"></path></g><g transform="translate(-102,-2) scale(1,1)"><path fill="none" stroke="#000000" d="M 621.419035512032 125.32534971524831 L 613 105 L 604.580964487968 125.32534971524831 L 621.419035512032 125.32534971524831" stroke-miterlimit="10"></path></g><g transform="translate(-102,-2) scale(1,1)"><path fill="none" stroke="#ff2b95" d="M 356 180 L 356 160 L 389 160 L 389 116" stroke-miterlimit="10" stroke-dasharray="3"></path></g><g transform="translate(-102,-2) scale(1,1)"><path fill="none" stroke="#ff2b95" d="M 393.209517756016 126.16267485762415 L 389 116 L 384.790482243984 126.16267485762415" stroke-miterlimit="10"></path></g><g transform="translate(-102,-2) scale(1,1)"><path fill="none" stroke="#ff2b95" d="M 424 180 L 424 160 L 389 160 L 389 116" stroke-miterlimit="10" stroke-dasharray="3"></path></g><g transform="translate(-102,-2) scale(1,1)"><path fill="none" stroke="#ff2b95" d="M 393.209517756016 126.16267485762415 L 389 116 L 384.790482243984 126.16267485762415" stroke-miterlimit="10"></path></g><g transform="translate(-102,-2) scale(1,1)"><path fill="none" stroke="#ff2b95" d="M 532 180 L 532 160 L 389 160 L 389 116" stroke-miterlimit="10" stroke-dasharray="3"></path></g><g transform="translate(-102,-2) scale(1,1)"><path fill="none" stroke="#ff2b95" d="M 393.209517756016 126.16267485762415 L 389 116 L 384.790482243984 126.16267485762415" stroke-miterlimit="10"></path></g><g transform="translate(-102,-2) scale(1,1)"><path fill="none" stroke="#ff2b95" d="M 640 180 L 640 160 L 389 160 L 389 116" stroke-miterlimit="10" stroke-dasharray="3"></path></g><g transform="translate(-102,-2) scale(1,1)"><path fill="none" stroke="#ff2b95" d="M 393.209517756016 126.16267485762415 L 389 116 L 384.790482243984 126.16267485762415" stroke-miterlimit="10"></path></g><g transform="translate(-102,-2) scale(1,1)"><path fill="none" stroke="#ff2b95" d="M 752 180 L 752 160 L 389 160 L 389 116" stroke-miterlimit="10" stroke-dasharray="3"></path></g><g transform="translate(-102,-2) scale(1,1)"><path fill="none" stroke="#ff2b95" d="M 393.209517756016 126.16267485762415 L 389 116 L 384.790482243984 126.16267485762415" stroke-miterlimit="10"></path></g><g transform="translate(-102,-2) scale(1,1)"><g><path fill="none" stroke="none"></path><text fill="#000000" stroke="none" font-family="Arial" font-size="13px" font-style="normal" font-weight="normal" text-decoration="none" x="394" y="128">«use»</text></g></g><g transform="translate(-102,-2) scale(1,1)"><path fill="none" stroke="#ff2b95" d="M 860 180 L 860 160 L 389 160 L 389 116" stroke-miterlimit="10" stroke-dasharray="3"></path></g><g transform="translate(-102,-2) scale(1,1)"><path fill="none" stroke="#ff2b95" d="M 393.209517756016 126.16267485762415 L 389 116 L 384.790482243984 126.16267485762415" stroke-miterlimit="10"></path></g><g transform="translate(-102,-2) scale(1,1)"><path fill="none" stroke="#969600" d="M 758 204 L 758 256 L 952 256" stroke-miterlimit="10"></path></g><g transform="translate(-102,-2) scale(1,1)"><path fill="none" stroke="#969600" d="M 870 204 L 870 284 L 952 284" stroke-miterlimit="10"></path></g><g transform="translate(-102,-2) scale(1,1)"><path fill="none" stroke="#969600" d="M 869 88 L 1007 88 L 1007 216" stroke-miterlimit="10" stroke-dasharray="3"></path></g><g transform="translate(-102,-2) scale(1,1)"><path fill="none" stroke="#969600" d="M 1002.790482243984 205.83732514237585 L 1007 216 L 1011.209517756016 205.83732514237585" stroke-miterlimit="10"></path></g><g transform="translate(-102,-2) scale(1,1)"><g><path fill="none" stroke="none"></path><text fill="#000000" stroke="none" font-family="Arial" font-size="13px" font-style="normal" font-weight="normal" text-decoration="none" x="1008" y="196">«use»</text></g></g><g transform="translate(-102,-2) scale(1,1)"><path fill="none" stroke="#969600" d="M 888 204 L 888 228 L 952 228" stroke-miterlimit="10" stroke-dasharray="3"></path></g><g transform="translate(-102,-2) scale(1,1)"><path fill="none" stroke="#969600" d="M 941.8373251423759 232.209517756016 L 952 228 L 941.8373251423758 223.790482243984" stroke-miterlimit="10"></path></g><g transform="translate(-102,-2) scale(1,1)"><path fill="none" stroke="#969600" d="M 780 204 L 780 228 L 952 228" stroke-miterlimit="10" stroke-dasharray="3"></path></g><g transform="translate(-102,-2) scale(1,1)"><path fill="none" stroke="#969600" d="M 941.8373251423759 232.209517756016 L 952 228 L 941.8373251423758 223.790482243984" stroke-miterlimit="10"></path></g><g transform="translate(-102,-2) scale(1,1)"><path fill="none" stroke="#969600" d="M 664 204 L 664 228 L 952 228" stroke-miterlimit="10" stroke-dasharray="3"></path></g><g transform="translate(-102,-2) scale(1,1)"><path fill="none" stroke="#969600" d="M 941.8373251423759 232.209517756016 L 952 228 L 941.8373251423758 223.790482243984" stroke-miterlimit="10"></path></g><g transform="translate(-102,-2) scale(1,1)"><path fill="none" stroke="#969600" d="M 564 204 L 564 228 L 952 228" stroke-miterlimit="10" stroke-dasharray="3"></path></g><g transform="translate(-102,-2) scale(1,1)"><path fill="none" stroke="#969600" d="M 941.8373251423759 232.209517756016 L 952 228 L 941.8373251423758 223.790482243984" stroke-miterlimit="10"></path></g><g transform="translate(-102,-2) scale(1,1)"><path fill="none" stroke="#969600" d="M 464 204 L 464 228 L 952 228" stroke-miterlimit="10" stroke-dasharray="3"></path></g><g transform="translate(-102,-2) scale(1,1)"><path fill="none" stroke="#969600" d="M 941.8373251423759 232.209517756016 L 952 228 L 941.8373251423758 223.790482243984" stroke-miterlimit="10"></path></g><g transform="translate(-102,-2) scale(1,1)"><path fill="none" stroke="#969600" d="M 360 204 L 360 228 L 952 228" stroke-miterlimit="10" stroke-dasharray="3"></path></g><g transform="translate(-102,-2) scale(1,1)"><path fill="none" stroke="#969600" d="M 941.8373251423759 232.209517756016 L 952 228 L 941.8373251423758 223.790482243984" stroke-miterlimit="10"></path></g><g transform="translate(-102,-2) scale(1,1)"><path fill="none" stroke="#969600" d="M 300 300 L 352 300 L 352 228 L 952 228" stroke-miterlimit="10" stroke-dasharray="3"></path></g><g transform="translate(-102,-2) scale(1,1)"><path fill="none" stroke="#969600" d="M 941.8373251423759 232.209517756016 L 952 228 L 941.8373251423758 223.790482243984" stroke-miterlimit="10"></path></g><g transform="translate(-102,-2) scale(1,1)"><path fill="none" stroke="#969600" d="M 300 272 L 352 272 L 352 228 L 952 228" stroke-miterlimit="10" stroke-dasharray="3"></path></g><g transform="translate(-102,-2) scale(1,1)"><path fill="none" stroke="#969600" d="M 941.8373251423759 232.209517756016 L 952 228 L 941.8373251423758 223.790482243984" stroke-miterlimit="10"></path></g><g transform="translate(-102,-2) scale(1,1)"><g><path fill="none" stroke="none"></path><text fill="#000000" stroke="none" font-family="Arial" font-size="13px" font-style="normal" font-weight="normal" text-decoration="none" x="910" y="224">«use»</text></g></g><g transform="translate(-102,-2) scale(1,1)"><path fill="none" stroke="#468c00" d="M 356 420 L 340 420 L 340 204" stroke-miterlimit="10"></path></g><g transform="translate(-102,-2) scale(1,1)"><path fill="none" stroke="#468c00" d="M 456 380 L 456 204" stroke-miterlimit="10"></path></g><g transform="translate(-102,-2) scale(1,1)"><path fill="none" stroke="#468c00" d="M 356 392 L 344 392 L 344 204" stroke-miterlimit="10"></path></g><g transform="translate(-102,-2) scale(1,1)"><path fill="none" stroke="#468c00" d="M 625 364 L 700 364 L 700 360 L 729 360 L 729 364 L 864 364 L 864 204" stroke-miterlimit="10"></path></g><g transform="translate(-102,-2) scale(1,1)"><path fill="none" stroke="#468c00" d="M 604 352 L 604 172 L 758 172 L 758 180" stroke-miterlimit="10"></path></g><g transform="translate(-102,-2) scale(1,1)"><path fill="none" stroke="#468c00" d="M 504 364 L 460 364 L 460 204" stroke-miterlimit="10"></path></g><g transform="translate(-102,-2) scale(1,1)"><path fill="none" stroke="#468c00" d="M 564 376 L 564 396 L 684 396" stroke-miterlimit="10"></path></g><g transform="translate(-102,-2) scale(1,1)"><path fill="none" stroke="#468c00" d="M 782 336 L 856 336 L 856 204" stroke-miterlimit="10"></path></g><g transform="translate(-102,-2) scale(1,1)"><path fill="none" stroke="#468c00" d="M 752 324 L 752 204" stroke-miterlimit="10"></path></g><g transform="translate(-102,-2) scale(1,1)"><path fill="none" stroke="#468c00" d="M 684 336 L 649 336 L 649 204" stroke-miterlimit="10"></path></g><g transform="translate(-102,-2) scale(1,1)"><path fill="none" stroke="#468c00" d="M 420 352 L 420 204" stroke-miterlimit="10"></path></g><g transform="translate(-102,-2) scale(1,1)"><path fill="none" stroke="#468c00" d="M 712 348 L 712 384" stroke-miterlimit="10"></path></g><g transform="translate(-102,-2) scale(1,1)"><path fill="none" stroke="#468c00" d="M 904 372 L 880 372 L 880 204" stroke-miterlimit="10"></path></g><g transform="translate(-102,-2) scale(1,1)"><path fill="none" stroke="#468c00" d="M 769 396 L 876 396 L 876 204" stroke-miterlimit="10"></path></g><g transform="translate(-102,-2) scale(1,1)"><path fill="none" stroke="#468c00" d="M 769 404 L 1112 404 L 1112 172 L 758 172 L 758 180" stroke-miterlimit="10"></path></g><g transform="translate(-102,-2) scale(1,1)"><path fill="none" stroke="#468c00" d="M 904 344 L 884 344 L 884 204" stroke-miterlimit="10"></path></g><g transform="translate(-102,-2) scale(1,1)"><path fill="none" stroke="#a82a00" d="M 140 252 L 112 252 L 112 336 L 176 336" stroke-miterlimit="10"></path></g><g transform="translate(-102,-2) scale(1,1)"><path fill="none" stroke="#a82a00" d="M 140 280 L 124 280 L 124 308 L 176 308" stroke-miterlimit="10"></path></g><g transform="translate(-102,-2) scale(1,1)"><path fill="none" stroke="#a82a00" d="M 300 312 L 546 312 L 546 204" stroke-miterlimit="10"></path></g><g transform="translate(-102,-2) scale(1,1)"><path fill="none" stroke="#a82a00" d="M 300 308 L 444 308 L 444 204" stroke-miterlimit="10"></path></g><g transform="translate(-102,-2) scale(1,1)"><path fill="none" stroke="#a82a00" d="M 300 280 L 440 280 L 440 204" stroke-miterlimit="10"></path></g><g transform="translate(-102,-2) scale(1,1)"><path fill="none" stroke="#a82a00" d="M 300 252 L 436 252 L 436 204" stroke-miterlimit="10"></path></g><g transform="translate(-102,-2) scale(1,1)"><path fill="none" stroke="#a82a00" d="M 300 336 L 552 336 L 552 204" stroke-miterlimit="10"></path></g><g transform="translate(-102,-2) scale(1,1)"><path fill="none" stroke="#000000" d="M 650 87 L 748 87" stroke-miterlimit="10"></path></g><g transform="translate(-102,-2) scale(1,1)"><path fill="#FFFFFF" stroke="none" d="M 737.8373251423759 91.20951775601598 L 748 87 L 737.8373251423758 82.79048224398402 L 726 87"></path></g><g transform="translate(-102,-2) scale(1,1)"><path fill="none" stroke="#000000" d="M 737.8373251423759 91.20951775601598 L 748 87 L 737.8373251423758 82.79048224398402 L 726 87 L 737.8373251423759 91.20951775601598" stroke-miterlimit="10"></path></g></g></svg>